<?xml version="1.0" encoding="UTF-8" standalone="no"?>
<!DOCTYPE svg PUBLIC "-//W3C//DTD SVG 1.1//EN" "http://www.w3.org/Graphics/SVG/1.1/DTD/svg11.dtd">
<svg xmlns="http://www.w3.org/2000/svg" version="1.1" viewBox="0.00 0.00 246.00 99.00">
<path fill="#fefefe" d="
  M 76.62 99.00
  L 66.77 99.00
  Q 59.73 98.74 54.27 96.07
  C 49.91 93.94 49.36 90.16 51.02 85.84
  C 57.79 68.28 57.16 50.81 47.40 34.84
  C 41.84 25.75 30.88 8.36 47.52 2.17
  C 53.64 -0.11 60.26 0.38 66.64 1.85
  Q 79.96 4.94 93.43 12.45
  C 110.88 22.19 151.81 48.75 135.01 73.80
  C 130.51 80.51 123.48 85.36 116.13 88.85
  Q 97.40 97.73 76.62 99.00
  Z
  M 116.28 43.77
  A 3.50 3.50 0.0 0 0 112.78 40.27
  A 3.50 3.50 0.0 0 0 109.28 43.77
  A 3.50 3.50 0.0 0 0 112.78 47.27
  A 3.50 3.50 0.0 0 0 116.28 43.77
  Z
  M 127.66 54.76
  L 131.63 54.63
  Q 131.88 54.62 131.87 54.37
  L 131.79 49.99
  Q 131.78 49.70 131.49 49.70
  L 127.59 49.70
  Q 126.98 49.70 127.00 49.09
  L 127.12 44.76
  Q 127.15 43.84 126.26 44.09
  L 121.01 45.56
  Q 120.49 45.71 120.49 46.25
  L 120.50 49.13
  Q 120.50 49.77 119.87 49.74
  L 118.26 49.66
  Q 117.66 49.64 117.66 50.24
  L 117.63 53.94
  Q 117.63 54.75 118.44 54.73
  L 119.99 54.69
  Q 120.56 54.68 120.54 55.24
  Q 120.39 60.31 120.59 65.05
  C 120.85 71.47 126.39 72.64 131.52 71.17
  Q 131.75 71.11 131.74 70.88
  L 131.63 66.08
  Q 131.63 65.86 131.42 65.93
  Q 127.16 67.19 127.12 62.99
  Q 127.08 59.57 127.02 55.44
  Q 127.01 54.79 127.66 54.76
  Z
  M 76.34 66.49
  C 74.25 67.57 70.93 66.56 69.03 65.56
  A 0.44 0.44 0.0 0 0 68.39 65.84
  L 67.42 69.71
  Q 67.29 70.23 67.79 70.42
  C 73.84 72.82 85.16 72.35 83.36 62.97
  C 82.68 59.42 77.95 58.14 75.14 56.96
  A 1.40 1.40 0.0 0 1 74.70 54.68
  C 76.24 53.15 79.36 54.16 81.02 54.94
  A 0.43 0.43 0.0 0 0 81.61 54.66
  L 82.59 51.01
  A 0.66 0.66 0.0 0 0 82.20 50.23
  C 77.41 48.36 68.89 48.78 67.94 55.40
  C 67.16 60.79 72.59 62.09 76.26 63.74
  A 1.53 1.53 0.0 0 1 76.34 66.49
  Z
  M 100.24 68.98
  L 100.25 70.51
  Q 100.26 71.25 101.01 71.25
  L 105.53 71.25
  Q 106.06 71.25 106.06 70.72
  L 105.96 49.96
  Q 105.96 49.71 105.71 49.71
  L 99.53 49.69
  Q 99.25 49.68 99.25 49.97
  L 99.25 62.21
  Q 99.25 65.55 95.99 66.28
  Q 95.45 66.40 94.97 66.21
  Q 92.47 65.21 92.46 62.75
  L 92.46 49.96
  Q 92.46 49.71 92.21 49.71
  L 85.98 49.69
  Q 85.71 49.68 85.70 49.95
  Q 85.28 61.68 86.03 65.64
  C 87.38 72.77 95.18 73.45 99.64 68.74
  Q 100.24 68.11 100.24 68.98
  Z
  M 116.1719 50.0841
  A 0.40 0.40 0.0 0 0 115.7712 49.6848
  L 109.7912 49.6952
  A 0.40 0.40 0.0 0 0 109.3919 50.0959
  L 109.4281 70.8559
  A 0.40 0.40 0.0 0 0 109.8288 71.2552
  L 115.8088 71.2448
  A 0.40 0.40 0.0 0 0 116.2081 70.8441
  L 116.1719 50.0841
  Z"
/>
<path fill="#fefefe" d="
  M 33.07 41.13
  C 23.50 49.76 4.73 28.77 0.80 21.24
  C -0.72 18.33 2.25 15.51 4.81 14.83
  C 10.48 13.32 16.84 15.22 22.37 17.32
  C 29.91 20.20 35.51 24.76 35.92 33.23
  Q 36.17 38.33 33.07 41.13
  Z"
/>
<path fill="#fefefe" d="
  M 213.40 68.49
  Q 208.84 73.52 203.00 71.44
  C 192.33 67.63 195.43 47.10 208.77 49.66
  Q 211.17 50.12 212.77 52.04
  Q 213.47 52.87 213.46 51.78
  L 213.41 40.02
  A 0.32 0.31 -0.9 0 1 213.73 39.70
  L 216.99 39.71
  Q 217.27 39.71 217.27 39.99
  L 217.35 71.33
  A 0.18 0.17 -1.5 0 1 217.17 71.51
  L 214.26 71.51
  A 0.46 0.46 0.0 0 1 213.80 71.00
  L 214.01 68.76
  Q 214.11 67.70 213.40 68.49
  Z
  M 207.0006 69.0179
  A 8.35 6.58 91.3 0 0 213.7683 60.8193
  A 8.35 6.58 91.3 0 0 207.3794 52.3221
  A 8.35 6.58 91.3 0 0 200.6117 60.5207
  A 8.35 6.58 91.3 0 0 207.0006 69.0179
  Z"
/>
<circle fill="#fefefe" cx="223.98" cy="43.88" r="2.47"/>
<path fill="#fefefe" d="
  M 246.00 55.38
  L 246.00 71.54
  L 243.52 71.47
  Q 242.82 71.45 242.95 70.76
  Q 243.07 70.17 242.85 69.53
  Q 242.62 68.80 242.09 69.36
  C 237.46 74.29 227.35 72.02 229.44 63.95
  C 230.62 59.41 236.45 57.59 240.60 57.78
  Q 243.09 57.90 242.27 55.55
  L 242.06 54.92
  Q 241.19 52.40 238.53 52.22
  Q 234.93 51.98 232.18 53.50
  Q 231.71 53.76 231.51 53.26
  L 230.87 51.66
  Q 230.67 51.16 231.15 50.93
  C 236.33 48.38 244.69 48.06 246.00 55.38
  Z
  M 233.32 66.41
  C 234.22 70.82 240.29 69.31 241.88 66.36
  Q 242.95 64.40 242.42 60.81
  Q 242.36 60.37 241.91 60.35
  C 238.16 60.24 232.27 61.24 233.32 66.41
  Z"
/>
<path fill="#fefefe" d="
  M 146.29 52.91
  C 146.81 52.10 147.64 50.97 148.48 50.56
  Q 155.19 47.27 158.68 53.31
  Q 159.04 53.92 159.40 53.30
  C 162.18 48.45 169.11 47.97 172.08 52.81
  Q 173.47 55.08 173.48 58.39
  Q 173.50 65.11 173.50 71.24
  Q 173.50 71.51 173.23 71.51
  L 169.98 71.52
  Q 169.56 71.52 169.57 71.10
  Q 169.70 64.77 169.57 58.30
  C 169.39 49.91 159.40 51.53 159.73 58.64
  C 159.92 62.78 159.74 67.02 159.77 71.19
  Q 159.78 71.51 159.46 71.51
  L 156.22 71.52
  Q 155.82 71.52 155.83 71.11
  Q 155.96 63.80 155.81 57.48
  C 155.65 50.36 146.50 51.67 146.07 58.00
  Q 145.87 60.86 146.11 71.13
  Q 146.12 71.51 145.74 71.51
  L 142.57 71.51
  Q 142.26 71.51 142.26 71.20
  L 142.17 49.98
  Q 142.17 49.86 142.28 49.86
  L 145.27 49.85
  Q 145.44 49.85 145.45 50.03
  L 145.59 52.73
  Q 145.65 53.91 146.29 52.91
  Z"
/>
<path fill="#fefefe" d="
  M 181.66 61.38
  Q 178.24 61.39 179.88 64.38
  Q 180.18 64.92 180.49 65.47
  A 6.67 6.65 -12.5 0 0 185.92 68.92
  Q 189.59 69.15 192.76 67.97
  Q 192.97 67.89 193.04 68.09
  Q 193.55 69.53 193.51 70.68
  A 0.23 0.23 0.0 0 1 193.36 70.88
  C 186.19 73.21 177.65 72.42 175.98 63.85
  C 172.70 46.96 195.74 43.50 194.86 60.56
  Q 194.82 61.36 194.02 61.36
  L 181.66 61.38
  Z
  M 180.03 58.62
  L 190.85 58.54
  A 0.36 0.36 0.0 0 0 191.21 58.18
  L 191.21 57.92
  A 5.74 5.72 89.6 0 0 185.45 52.22
  L 185.35 52.22
  A 5.74 5.72 89.6 0 0 179.67 58.00
  L 179.67 58.26
  A 0.36 0.36 0.0 0 0 180.03 58.62
  Z"
/>
<rect fill="#fefefe" x="221.99" y="49.97" width="4.02" height="21.54" rx="0.26"/>
</svg>
