<?xml version="1.0" encoding="UTF-8" standalone="no"?>
<!DOCTYPE svg PUBLIC "-//W3C//DTD SVG 1.1//EN" "http://www.w3.org/Graphics/SVG/1.1/DTD/svg11.dtd">
<svg xmlns="http://www.w3.org/2000/svg" version="1.1" viewBox="0.00 0.00 246.00 99.00">
<path fill="#ff6700" d="
  M 76.62 99.00
  L 66.77 99.00
  Q 59.62 98.76 54.05 95.97
  C 50.24 94.06 49.30 90.46 50.86 86.35
  C 56.01 72.77 57.26 59.58 52.73 46.08
  C 50.23 38.64 45.50 32.10 41.98 25.09
  C 40.25 21.65 38.48 17.31 38.62 13.49
  C 39.03 2.20 52.08 -0.42 61.25 0.90
  Q 74.50 2.80 88.12 9.68
  C 105.72 18.56 148.26 44.61 137.08 70.00
  C 132.59 80.19 121.12 87.23 110.74 91.30
  Q 93.71 97.98 76.62 99.00
  Z
  M 116.27 43.77
  A 3.49 3.49 0.0 0 0 112.78 40.28
  A 3.49 3.49 0.0 0 0 109.29 43.77
  A 3.49 3.49 0.0 0 0 112.78 47.26
  A 3.49 3.49 0.0 0 0 116.27 43.77
  Z
  M 127.66 54.73
  L 131.50 54.66
  Q 131.90 54.65 131.88 54.26
  L 131.76 49.87
  Q 131.76 49.68 131.57 49.69
  L 127.73 49.72
  Q 126.98 49.73 127.00 48.98
  L 127.09 44.68
  Q 127.11 43.86 126.33 44.08
  Q 121.19 45.49 121.18 45.49
  Q 120.43 45.70 120.46 46.38
  Q 120.53 47.77 120.50 49.27
  Q 120.50 49.81 119.96 49.77
  L 118.41 49.67
  Q 117.69 49.63 117.69 50.34
  L 117.64 53.96
  Q 117.63 54.78 118.46 54.74
  L 119.89 54.65
  Q 120.56 54.61 120.54 55.29
  Q 120.41 60.31 120.58 64.95
  C 120.81 71.23 125.99 72.57 131.09 71.31
  A 0.83 0.81 83.3 0 0 131.71 70.51
  L 131.69 66.56
  Q 131.69 65.85 131.00 66.03
  Q 127.28 66.97 127.14 63.29
  Q 127.00 59.64 127.03 55.37
  Q 127.04 54.74 127.66 54.73
  Z
  M 76.11 66.64
  Q 72.96 67.63 68.74 65.40
  A 0.16 0.16 0.0 0 0 68.51 65.50
  L 67.38 69.94
  Q 67.30 70.24 67.59 70.36
  C 73.29 72.59 83.90 72.73 83.57 64.15
  C 83.39 59.64 78.49 58.34 75.17 57.00
  A 1.43 1.42 36.9 0 1 74.82 54.56
  Q 76.74 53.04 81.07 54.98
  Q 81.50 55.17 81.61 54.72
  L 82.58 51.00
  Q 82.71 50.48 82.22 50.28
  C 78.11 48.61 72.05 48.62 69.11 52.55
  C 66.70 55.76 67.86 59.83 71.43 61.60
  Q 73.72 62.73 76.21 63.70
  A 1.56 1.56 0.0 0 1 76.11 66.64
  Z
  M 100.24 69.01
  L 100.26 70.51
  Q 100.27 71.25 101.01 71.25
  L 105.54 71.24
  Q 106.06 71.24 106.06 70.71
  L 105.96 49.96
  Q 105.96 49.72 105.71 49.71
  L 99.65 49.69
  Q 99.25 49.69 99.25 50.10
  L 99.25 62.60
  Q 99.25 66.12 95.74 66.31
  Q 94.44 66.38 93.20 64.99
  A 2.97 2.96 -65.7 0 1 92.46 63.03
  L 92.44 50.08
  A 0.37 0.36 89.2 0 0 92.08 49.72
  L 86.04 49.69
  Q 85.66 49.68 85.66 50.06
  Q 85.65 56.52 85.66 62.91
  C 85.66 66.66 87.13 70.45 91.10 71.44
  C 94.38 72.26 97.35 71.27 99.57 68.76
  Q 100.22 68.02 100.24 69.01
  Z
  M 116.1518 50.0441
  A 0.34 0.34 0.0 0 0 115.8112 49.7047
  L 109.7512 49.7153
  A 0.34 0.34 0.0 0 0 109.4118 50.0559
  L 109.4482 70.9159
  A 0.34 0.34 0.0 0 0 109.7888 71.2553
  L 115.8488 71.2447
  A 0.34 0.34 0.0 0 0 116.1882 70.9041
  L 116.1518 50.0441
  Z"
/>
<path fill="#ff6700" d="
  M 1.06 21.87
  Q -0.24 19.83 0.88 17.86
  C 5.26 10.12 21.78 16.66 27.46 19.71
  C 33.11 22.74 36.60 29.02 35.86 35.44
  C 35.30 40.30 31.56 43.82 26.55 43.09
  C 16.65 41.66 6.22 29.96 1.06 21.87
  Z"
/>
<path fill="#ff6700" d="
  M 213.34 68.47
  Q 209.00 73.52 203.16 71.48
  C 195.81 68.92 194.88 58.55 199.15 53.06
  C 202.34 48.97 209.27 47.72 212.91 52.16
  Q 213.44 52.82 213.44 51.97
  L 213.40 40.02
  Q 213.40 39.70 213.73 39.70
  L 216.99 39.69
  A 0.31 0.30 -0.0 0 1 217.30 39.99
  L 217.36 71.21
  Q 217.36 71.53 217.04 71.53
  L 214.36 71.51
  A 0.60 0.59 -86.5 0 1 213.78 70.85
  L 214.00 68.75
  Q 214.12 67.57 213.34 68.47
  Z
  M 207.0008 69.0079
  A 8.34 6.57 91.3 0 0 213.7583 60.8191
  A 8.34 6.57 91.3 0 0 207.3792 52.3321
  A 8.34 6.57 91.3 0 0 200.6217 60.5209
  A 8.34 6.57 91.3 0 0 207.0008 69.0079
  Z"
/>
<circle fill="#ff6700" cx="223.98" cy="43.88" r="2.49"/>
<path fill="#ff6700" d="
  M 246.00 55.34
  L 246.00 71.53
  L 243.50 71.47
  Q 242.86 71.45 242.94 70.82
  Q 243.01 70.20 242.83 69.56
  Q 242.60 68.74 242.03 69.38
  C 238.17 73.78 229.17 72.72 229.22 65.80
  C 229.27 59.75 235.75 57.60 240.87 57.75
  Q 242.97 57.81 242.33 55.80
  L 242.08 55.01
  Q 241.29 52.54 238.71 52.27
  Q 234.87 51.89 232.09 53.58
  Q 231.70 53.82 231.54 53.40
  L 230.84 51.55
  Q 230.69 51.17 231.04 50.98
  C 236.25 48.08 244.44 48.23 246.00 55.34
  Z
  M 236.89 69.15
  Q 243.56 68.66 242.43 60.95
  Q 242.34 60.34 241.73 60.34
  C 237.73 60.35 232.07 61.41 233.38 66.72
  C 233.76 68.26 235.38 69.26 236.89 69.15
  Z"
/>
<path fill="#ff6700" d="
  M 146.27 52.92
  Q 147.37 50.93 149.29 50.17
  Q 155.62 47.67 158.71 53.40
  Q 159.01 53.96 159.32 53.41
  Q 161.23 50.03 164.97 49.55
  C 170.84 48.79 173.51 53.42 173.50 58.60
  Q 173.48 65.05 173.50 71.07
  Q 173.50 71.53 173.05 71.53
  L 170.01 71.52
  A 0.44 0.44 0.0 0 1 169.57 71.08
  Q 169.65 65.06 169.61 58.76
  Q 169.59 56.95 168.93 55.33
  C 167.68 52.26 164.03 51.81 161.65 53.91
  C 159.62 55.69 159.60 58.26 159.69 60.92
  Q 159.86 65.87 159.72 71.29
  Q 159.72 71.51 159.50 71.51
  L 156.23 71.52
  Q 155.82 71.52 155.83 71.12
  Q 155.95 64.19 155.82 57.52
  C 155.68 50.11 146.07 51.58 146.04 59.00
  Q 146.02 65.35 146.12 71.15
  Q 146.13 71.51 145.76 71.51
  L 142.51 71.51
  Q 142.26 71.51 142.26 71.26
  L 142.16 49.97
  Q 142.16 49.86 142.28 49.86
  L 145.24 49.79
  Q 145.44 49.79 145.45 49.99
  L 145.60 52.76
  Q 145.67 54.00 146.27 52.92
  Z"
/>
<path fill="#ff6700" d="
  M 181.64 61.28
  Q 178.02 61.13 179.90 64.37
  Q 179.97 64.49 180.75 65.83
  A 6.28 6.27 -15.4 0 0 186.27 68.96
  Q 190.37 68.90 192.72 67.99
  Q 193.04 67.87 193.11 68.21
  L 193.58 70.46
  A 0.38 0.37 -15.6 0 1 193.34 70.88
  C 188.71 72.50 182.51 72.89 178.73 69.20
  C 174.76 65.32 174.84 58.10 177.66 53.78
  Q 180.92 48.77 187.28 49.50
  C 193.10 50.16 195.26 55.69 194.82 60.95
  A 0.36 0.35 0.8 0 1 194.47 61.28
  Q 187.95 61.52 181.64 61.28
  Z
  M 179.97 58.60
  L 190.91 58.52
  A 0.29 0.29 0.0 0 0 191.20 58.23
  L 191.20 57.91
  A 5.73 5.72 89.6 0 0 185.44 52.22
  L 185.36 52.22
  A 5.73 5.72 89.6 0 0 179.68 57.99
  L 179.68 58.31
  A 0.29 0.29 0.0 0 0 179.97 58.60
  Z"
/>
<rect fill="#ff6700" x="221.98" y="49.95" width="4.04" height="21.56" rx="0.27"/>
</svg>
